# xmcd
#
# Track frame offsets:
#	150
#	8552
#	16235
#	27550
#	38570
#	47387
#	59457
#	71060
#	82432
#	88245
#	99102
#	110107
#	120140
#	132802
#	142175
#	153845
#	165065
#	174212
#	183622
#	191407
#	201625
#	213717
#	224247
#	234337
#	246662
#	256957
#	267735
#	271712
#
# Disc length: 3754 seconds
#
# Revision: 5
# Processed by: cddbd v1.4PL0 Copyright (c) Steve Scherf et al.
# Submitted via: MusicWizard 6.0.0
#
DISCID=980ea81c
DTITLE=Johnny Cash - The SUN Years  [CD 1/3) - Wide Open Road
DYEAR=1995
DGENRE=Country
TTITLE0=Wide Open Road (Demo)
TTITLE1=You're My Baby (Demo)
TTITLE2=Folsom Prison Blues (Alternate)
TTITLE3=Wide Open Road (Alternate)
TTITLE4=Two Timin' Woman
TTITLE5=Goodnight Irene (Alternate)
TTITLE6=Port Of Lonely Hearts
TTITLE7=My Treasure (Demo)
TTITLE8=My Treasure
TTITLE9=Wide Open Road
TTITLE10=Cry, Cry, Cry
TTITLE11=Hey Porter
TTITLE12=Folsom Prison Blues
TTITLE13=Luther Played The Boogie
TTITLE14=So Dogone Lonesome
TTITLE15=Mean Eyed Cat
TTITLE16=I Couldn't Keep From Crying
TTITLE17=New Mexico
TTITLE18=Rock 'N' Roll Ruby (Demo)
TTITLE19=Get Rhythm (Althernate)
TTITLE20=I Walk The Line (Alternate)
TTITLE21=Train Of Love (Alternate)
TTITLE22=Get Rhythm
TTITLE23=I Walk The Line
TTITLE24=There You Go
TTITLE25=Train Of Love
TTITLE26=One More Ride (Demo)
TTITLE27=Goodbye Little Darling
EXTD=(c)1995 Charly Holdings UK\n(p)1984 Charly Records\nCDSUNBox 5/1\n
EXTT0=
EXTT1=
EXTT2=
EXTT3=
EXTT4=
EXTT5=
EXTT6=
EXTT7=
EXTT8=
EXTT9=
EXTT10=
EXTT11=
EXTT12=
EXTT13=
EXTT14=
EXTT15=
EXTT16=
EXTT17=
EXTT18=
EXTT19=
EXTT20=
EXTT21=
EXTT22=
EXTT23=
EXTT24=
EXTT25=
EXTT26=
EXTT27=
PLAYORDER=
